<?xml version="1.0" encoding="UTF-8"?>
<svg xmlns="http://www.w3.org/2000/svg"
    version="1.1"
    viewBox="0 0 35.229607 22.311636"
    style="width: 50%; height: auto"
    height="22.311636mm"
    width="35.229607mm">
    <g transform="translate(-1.0067046,-1.1224037)">
        <g stroke="#000" stroke-linecap="round" stroke-width="0.26499999">
            <path d="m 24.84256,9.5803873 c -0.01224,-2.5334 0.02457,-5.0615 -0.01858,-7.6055 -0.240354,-1.26670001 -1.966206,-0.7827196 -1.809949,0.4876 0.02536,2.5599 -0.05247,5.1145 0.04214,7.6849997 0.23161,1.77285 1.8603,3.2065 3.603999,3.1535 0.429672,-0.45161 0.592925,-0.592655 0.825816,-0.879494 C 27.09075,11.952628 26.990645,11.871299 26.669797,11.528216 25.855414,11.308302 24.81842,10.433687 24.83167,9.5697873 Z"/>
            <path d="m 9.34006,9.5803873 c 0.04028,1.0520497 -0.08533,2.1252997 0.071815,3.1534997 0.46905,1.13685 1.903074,0.591335 1.780574,-0.585797 0.05538,-1.0494 -0.156919,-2.2868027 0.120006,-3.3070527 0.371,-1.01495 1.525761,-1.1267239 2.436154,-1.0977391 0.706272,-0.019183 0.672131,-0.3957666 0.682659,-0.8000631 -0.03406,-0.4606261 0.0839,-0.8097436 -0.327559,-1.0738891 -1.30115,-0.06254 -2.7295,0.057514 -3.6835,1.1111543 -0.6810497,0.689 -1.092604,1.608787 -1.087304,2.589287 z"/>
            <path d="m 18.48256,5.8438873 h -1.3833 v 1.8656 c 1.03615,0.01961 2.34525,-0.209615 2.9415,0.90365 1.1236,1.6747997 -1.272,3.7894997 -2.7295,2.4035497 -0.98315,-0.85595 -0.5777,-2.2418997 -0.6625,-3.3919997 v -5.459 C 16.353167,1.8439399 15.997052,1.4713155 15.731407,1.2740755 c -0.242573,0.1998683 -0.58089,0.5082432 -0.900145,0.8756183 0.02443,2.6076 -0.05897,5.3875435 0.03246,7.9845432 0.263675,2.3532 2.9945,3.8955 5.088,2.862 2.17035,-0.8798 2.8885,-4.0014997 1.3462,-5.8034997 -0.68105,-0.85065 -1.74105,-1.3621 -2.809,-1.3568 z"/>
            <path d="M 4.78206,11.435387 C 2.80251,11.551722 2.26456,8.3878873 4.16991,7.8048873 c 1.34885,-0.5459 2.703,0.8374 2.44065,2.2100997 -0.022313,1.51315 0.04611,3.021 -0.0371,4.5315 -0.1431,1.44955 -1.74105,1.2561 -2.54665,1.9027 -0.71815,1.431 1.29055,1.7914 2.18095,1.1607 1.5582,-0.62805 2.4062,-2.385 2.2313,-4.028 -0.04028,-1.61385 0.09222,-3.233 -0.09116,-4.8494997 -0.4346,-2.3267 -3.2595,-3.657 -5.2735,-2.4698 -2.10145,1.04145 -2.60495,4.2134997 -0.9275,5.8829997 0.89305,1.0388 2.28165,1.22165 3.551,1.15275 0.299743,-0.295191 0.4047747,-0.448888 0.86125,-0.9858 -0.4797293,-0.428775 -0.5528647,-0.502962 -1.00965,-0.8798 z"/>
        </g>
        <text
            style="font-style:italic;font-weight:bold;font-size:13.39999962px;line-height:1.25;font-family:sans-serif;fill:#f90000;stroke-width:0.07"
            font-weight="bold"
            font-style="italic"
            font-size="13.4px"
            y="23.43404"
            x="6.734067">
            <tspan font-size="13.4px" style="font-size:13.39999962px;fill:#f90000;stroke-width:0.07">HAL</tspan>
        </text>
    </g>
</svg>
